# xmcd CD database file
# Copyright (C) 1993-1998 Ti Kan
# 
# Track frame offsets:
#     150
#     14100
#     32770
#     47602
#     77265
#     92312
#     102247
#     114727
#     126585
#     134655
#     150972
#     165592
# 
# Disc length: 2355 seconds
# 
# Revision: 1
# Processed by: cddbd v1.4b41PL1 Copyright (c) Steve Scherf et al.
# Submitted via: DiscPlay 4.0.3
# 
DISCID=9109310c
DTITLE=The Buzzbrothers - The Buzzbrothers
DYEAR=1900
DGENRE=
TTITLE0=She's My Baby
TTITLE1=What's New In Town
TTITLE2=Drownin'
TTITLE3=Play It Cool
TTITLE4=Country Girl
TTITLE5=That's It
TTITLE6=Freight Train
TTITLE7=You Keep Comin' Along
TTITLE8=Fly In My Soup
TTITLE9=Sweet Lovin' Woman
TTITLE10=One Kiss
TTITLE11=Late At Night
EXTD=
EXTT0=
EXTT1=
EXTT2=
EXTT3=
EXTT4=
EXTT5=
EXTT6=
EXTT7=
EXTT8=
EXTT9=
EXTT10=
EXTT11=
PLAYORDER=
